# xmcd
#
# Track frame offsets:
#	150
#	13820
#	28675
#	49999
#	67111
#	83819
#	100929
#	134294
#	153267
#	173196
#	187669
#	204152
#	217998
#
# Disc length: 3151 seconds
#
# Revision: 1
# Processed by: cddbd v1.5.2PL0 Copyright (c) Steve Scherf et al.
# Submitted via: audiograbber 1.83.01
#
DISCID=a90c4d0d
DTITLE=Alan Jackson - Thirty Miles West
DYEAR=2012
DGENRE=Country
TTITLE0=Gonna Home Back as A Country Song
TTITLE1=You Go Your Way
TTITLE2=Everything But the Wings
TTITLE3=Talk is Cheap
TTITLE4=So You Don't Have to Love Me Anymore
TTITLE5=Look Her in the Eye and Lie
TTITLE6=Dixi Highway (Feat. Zac Brown)
TTITLE7=She Dont Get High
TTITLE8=Her Life's A Song
TTITLE9=Nothin' Fancy
TTITLE10=Long Way to Go
TTITLE11=Life Keeps Bringing Me Down
TTITLE12=When I Saw You Leaving (for Nicey)
EXTD=
EXTT0=
EXTT1=
EXTT2=
EXTT3=
EXTT4=
EXTT5=
EXTT6=
EXTT7=
EXTT8=
EXTT9=
EXTT10=
EXTT11=
EXTT12=
PLAYORDER=
